HIERARCHY
ROOT Hips
{
	OFFSET 0.000000 0.000000 0.000000
	CHANNELS 6 Xposition Yposition Zposition Zrotation Yrotation Xrotation 
	JOINT LHipJoint
	{
		OFFSET 0.000000 0.000000 0.000000
		CHANNELS 3 Zrotation Yrotation Xrotation
		JOINT LeftUpLeg
		{
			OFFSET 1.363060 -1.794630 0.839290
			CHANNELS 3 Zrotation Yrotation Xrotation
			JOINT LeftLeg
			{
				OFFSET 2.448110 -6.726130 0.000000
				CHANNELS 3 Zrotation Yrotation Xrotation
				JOINT LeftFoot
				{
					OFFSET 2.562200 -7.039590 0.000000
					CHANNELS 3 Zrotation Yrotation Xrotation
					JOINT LeftToeBase
					{
						OFFSET 0.157640 -0.433110 2.322550
						CHANNELS 3 Zrotation Yrotation Xrotation
						End Site
						{
							OFFSET 0.000000 0.000000 0.000000
						}
					}
				}
			}
		}
	}
	JOINT RHipJoint
	{
		OFFSET 0.000000 0.000000 0.000000
		CHANNELS 3 Zrotation Yrotation Xrotation
		JOINT RightUpLeg
		{
			OFFSET -1.305520 -1.794630 0.839290
			CHANNELS 3 Zrotation Yrotation Xrotation
			JOINT RightLeg
			{
				OFFSET -2.542530 -6.985550 0.000000
				CHANNELS 3 Zrotation Yrotation Xrotation
				JOINT RightFoot
				{
					OFFSET -2.568260 -7.056230 0.000000
					CHANNELS 3 Zrotation Yrotation Xrotation
					JOINT RightToeBase
					{
						OFFSET -0.164730 -0.452590 2.363150
						CHANNELS 3 Zrotation Yrotation Xrotation
						End Site
						{
							OFFSET 0.000000 0.000000 0.000000
						}
					}
				}
			}
		}
	}
}
MOTION
Frames: 19
Frame Time: 0.008333
1.466428 17.358902 -0.172009 170.304106 -61.118643 -155.851907 -8.301916 0.384569 2.977595 -14.143176 -16.666327 -25.895733 0.557751 1.113170 39.287034 6.131304 37.504469 -0.367227 7.060800 0.000000 -36.338500 9.519987 -0.696286 3.307795 7.836877 12.569058 -17.911911 1.379904 0.154613 11.681458 -2.271074 -9.116984 -7.997541 -0.610500 0.000000 -42.867900
1.478984 17.356166 -0.177182 170.145519 -60.641997 -155.672121 -8.260268 0.274939 3.170188 -13.959592 -18.321938 -26.966314 0.694257 1.270404 41.896972 5.997824 37.134721 1.021685 7.847500 0.000000 -37.091300 9.586883 -0.625530 3.233041 7.584425 12.643244 -18.190666 1.356238 0.089206 12.216658 -2.221354 -8.838760 -8.107531 -0.566801 0.000000 -43.247400
1.491060 17.352755 -0.180376 170.021439 -60.162200 -155.533834 -8.230191 0.163650 3.356773 -13.766876 -19.907980 -28.066326 0.829881 1.425264 44.537611 5.837465 36.576100 2.491064 8.581300 0.000000 -37.601501 9.651763 -0.558593 3.150414 7.353042 12.662397 -18.468434 1.341545 0.024009 12.750178 -2.157397 -8.496043 -8.205417 -0.522400 -0.000000 -43.699300
1.502767 17.348746 -0.181823 169.926947 -59.676204 -155.433964 -8.210567 0.050166 3.533982 -13.576679 -21.404387 -29.183140 0.964983 1.575415 47.174967 5.660377 35.882152 4.058105 9.274600 0.000000 -38.068000 9.714944 -0.495596 3.061592 7.141461 12.631978 -18.742384 1.335136 -0.040772 13.278791 -2.080068 -8.092333 -8.290349 -0.478000 0.000000 -44.216500
1.514113 17.344258 -0.181596 169.864814 -59.183119 -155.375137 -8.200920 -0.065238 3.696792 -13.401545 -22.784009 -30.308708 1.098280 1.719984 49.789086 5.475040 35.082140 5.688263 9.903600 -0.000000 -38.358000 9.775621 -0.437056 2.969890 6.949313 12.563477 -19.009897 1.336209 -0.104538 13.797523 -1.991632 -7.637443 -8.362614 -0.434500 0.000000 -44.773200
1.525202 17.339396 -0.180176 169.826152 -58.681172 -155.346938 -8.199229 -0.182276 3.842230 -13.255118 -24.028573 -31.438143 1.228738 1.857869 52.359667 5.290460 34.217517 7.361436 10.465100 0.000000 -38.479200 9.834565 -0.383015 2.879320 6.771113 12.468445 -19.273549 1.342898 -0.167002 14.304862 -1.894521 -7.141788 -8.422482 -0.392600 -0.000000 -45.366600
1.536214 17.334327 -0.177831 169.806701 -58.170152 -155.344272 -8.203901 -0.300853 3.967640 -13.147349 -25.124772 -32.568048 1.355480 1.988471 54.871019 5.114734 33.331149 9.061507 10.965200 0.000000 -38.511300 9.891589 -0.333257 2.793766 6.603259 12.361752 -19.533097 1.353386 -0.227484 14.796462 -1.791947 -6.619975 -8.470117 -0.353101 -0.000000 -45.973600
1.547211 17.329203 -0.175007 169.798136 -57.650316 -155.355775 -8.212673 -0.420388 4.071647 -13.088693 -26.064795 -33.699023 1.477579 2.111663 57.314373 4.954106 32.458189 10.763131 11.407900 -0.000000 -38.499501 9.947483 -0.287475 2.717422 6.438622 12.256333 -19.792613 1.365509 -0.285587 15.271810 -1.686857 -6.084977 -8.507556 -0.316600 0.000000 -46.578501
1.558234 17.324222 -0.172033 169.796573 -57.123467 -155.373998 -8.223895 -0.540019 4.153227 -13.084991 -26.845837 -34.831897 1.594441 2.227907 59.685392 4.812180 31.623707 12.441846 11.797900 0.000000 -38.562700 10.002331 -0.245322 2.654081 6.271467 12.166974 -20.052340 1.377191 -0.340570 15.726951 -1.582696 -5.553060 -8.535992 -0.283400 0.000000 -47.149099
1.569558 17.319498 -0.169573 169.781073 -56.588636 -155.378455 -8.234129 -0.658575 4.213045 -13.148281 -27.469535 -35.974227 1.705731 2.338224 61.987398 4.691445 30.850680 14.063947 12.138801 0.000000 -38.613900 10.059310 -0.205847 2.606599 6.089595 12.095678 -20.323864 1.386143 -0.392992 16.169832 -1.480348 -5.027265 -8.558492 -0.253200 0.000000 -47.721100
1.581252 17.315186 -0.168015 169.741508 -56.047798 -155.356515 -8.241388 -0.774212 4.251802 -13.284106 -27.940878 -37.131936 1.812065 2.444439 64.227677 4.590145 30.136220 15.587411 12.421000 -0.000000 -38.695300 10.120287 -0.168538 2.577321 5.883749 12.046814 -20.611769 1.390546 -0.442854 16.602404 -1.381259 -4.514340 -8.576865 -0.225700 -0.000000 -48.269600
1.593438 17.311466 -0.167535 169.673495 -55.504722 -155.305195 -8.244461 -0.885801 4.269585 -13.493035 -28.270242 -38.305429 1.914574 2.548148 66.410565 4.506156 29.481969 17.001023 12.651100 -0.000001 -38.966700 10.185732 -0.132447 2.566569 5.649654 12.026157 -20.910391 1.389122 -0.489450 17.017813 -1.287492 -4.025196 -8.591475 -0.201300 0.000000 -48.775400
1.606262 17.308481 -0.168541 169.561296 -54.959955 -155.209861 -8.241007 -0.991562 4.268240 -13.780693 -28.469696 -39.501552 2.015141 2.651449 68.547654 4.435540 28.872618 18.273599 12.818500 -0.000001 -39.359600 10.259016 -0.096660 2.573977 5.376753 12.025626 -21.225229 1.380679 -0.533342 17.420921 -1.198313 -3.555991 -8.603764 -0.179300 0.000000 -49.252800
1.619871 17.306393 -0.171008 169.401193 -54.417126 -155.069754 -8.230118 -1.090551 4.248783 -14.145240 -28.555049 -40.721812 2.115925 2.756169 70.647120 4.373883 28.289470 19.397830 12.919100 0.000000 -39.932799 10.341269 -0.060284 2.597572 5.060906 12.041110 -21.550447 1.364711 -0.574273 17.805745 -1.113905 -3.109071 -8.610717 -0.159900 -0.000000 -49.692400
1.634509 17.305272 -0.175466 169.168370 -53.875153 -154.863160 -8.207626 -1.181673 4.215059 -14.595975 -28.544896 -41.975340 2.219303 2.863509 72.717584 4.316824 27.710249 20.365169 12.945300 0.000000 -40.515500 10.438873 -0.021815 2.634823 4.685687 12.047749 -21.899110 1.340555 -0.613837 18.185802 -1.030673 -2.664441 -8.616596 -0.141600 0.000000 -50.148100
1.650273 17.305329 -0.181476 168.871604 -53.338736 -154.602349 -8.174276 -1.265353 4.167744 -15.118598 -28.461097 -43.258503 2.326964 2.974572 74.763246 4.260485 27.114912 21.203912 12.901500 -0.000000 -41.261000 10.550075 0.019506 2.681727 4.256827 12.045774 -22.251610 1.308549 -0.650681 18.541884 -0.949968 -2.231928 -8.612932 -0.125400 -0.000000 -50.579900
1.667358 17.306729 -0.188876 168.507778 -52.810139 -154.287281 -8.129027 -1.342383 4.109263 -15.702589 -28.325908 -44.575042 2.440326 3.089948 76.788589 4.201792 26.485241 21.939309 12.790500 0.000000 -42.121200 10.675788 0.064668 2.734584 3.773850 12.025451 -22.601674 1.268897 -0.684601 18.867009 -0.871094 -1.809191 -8.594814 -0.111300 0.000000 -50.997500
1.685916 17.309531 -0.197749 168.064770 -52.289449 -153.908006 -8.068197 -1.413996 4.044200 -16.344600 -28.166406 -45.929973 2.559931 3.209135 78.792683 4.139016 25.811665 22.612422 12.624100 0.000000 -43.048199 10.820288 0.115402 2.789046 3.226814 11.964011 -22.953957 1.221833 -0.716620 19.167091 -0.791091 -1.379596 -8.563694 -0.098200 -0.000000 -51.437800
1.706130 17.313809 -0.207818 167.541760 -51.778397 -153.466556 -7.989968 -1.482183 3.975720 -17.030277 -28.009286 -47.325183 2.685712 3.331746 80.773863 4.071364 25.089938 23.266827 12.415700 -0.000000 -44.038800 10.984534 0.173189 2.840508 2.615688 11.850124 -23.301643 1.167769 -0.746768 19.436314 -0.709243 -0.939873 -8.515171 -0.085900 -0.000001 -51.922100
